<svg xmlns="http://www.w3.org/2000/svg" viewBox="0 0 326 80" width="815" height="200">
  <svg x="8" y="10" width="60" height="60" viewBox="0 0 32 32">
    <defs>
      <linearGradient id="lockup-grad" x1="0" y1="0" x2="32" y2="32" gradientUnits="userSpaceOnUse">
        <stop offset="0%" stop-color="#1a3a6b"/>
        <stop offset="60%" stop-color="#7c4dff"/>
        <stop offset="100%" stop-color="#c62828"/>
      </linearGradient>
    </defs>
    <path d="M16 3 L29 27 L22 27 L16 14 L10 27 L3 27 Z" fill="url(#lockup-grad)"/>
  </svg>
  <path d="M94.55 58.54C98.63 58.54 101.11 56.64 102.26 54.39L102.49 54.39L102.49 58L108.33 58L108.33 40.49C108.33 33.51 102.56 31.47 97.64 31.47C92.39 31.47 88.08 33.70 86.53 38.31L92.18 39.46C92.81 37.73 94.62 36.16 97.66 36.16C100.64 36.16 102.23 37.66 102.23 40.21L102.23 40.33C102.23 42.13 100.31 42.20 95.77 42.70C90.70 43.23 85.78 44.73 85.78 50.64C85.78 55.80 89.55 58.54 94.55 58.54M96.12 54.02C93.54 54.02 91.69 52.84 91.69 50.57C91.69 48.18 93.75 47.17 96.49 46.80C98.06 46.59 101.46 46.16 102.28 45.51L102.28 48.60C102.28 51.51 99.87 54.02 96.12 54.02 M113.80 67.80L119.89 67.80L119.89 53.85L120.15 53.85C121.09 55.75 123.13 58.47 127.63 58.47C133.84 58.47 138.45 53.55 138.45 44.95C138.45 36.23 133.70 31.47 127.65 31.47C122.98 31.47 121.06 34.28 120.15 36.13L119.75 36.13L119.75 31.80L113.80 31.80M125.98 53.45C122 53.45 119.77 50.03 119.77 44.92C119.77 39.81 121.95 36.48 125.98 36.48C130.11 36.48 132.20 40.05 132.20 44.92C132.20 49.84 130.06 53.45 125.98 53.45 M154.33 58.54C160.16 58.54 164.24 55.75 165.51 51.51L159.91 50.36C159.09 52.59 157.07 53.76 154.40 53.76C150.48 53.76 147.84 51.27 147.67 46.61L165.91 46.61L165.91 44.69C165.91 35.50 160.33 31.47 153.93 31.47C146.43 31.47 141.60 37 141.60 45.06C141.60 53.27 146.43 58.54 154.33 58.54M147.70 42.46C147.98 38.97 150.23 36.25 153.95 36.25C157.59 36.25 159.63 38.71 159.98 42.46 M168.07 58L174.66 58L177.89 52.75C178.92 51.02 179.70 49.35 180.47 47.76C181.29 49.35 182.11 51.02 183.14 52.75L186.38 58L193.03 58L184.34 44.69L192.63 31.80L186.07 31.80L183.30 36.25C182.25 38.01 181.43 39.74 180.63 41.36C179.81 39.74 178.99 38.03 177.96 36.25L175.29 31.80L168.59 31.80L176.74 44.55 M203.75 58.54C207.83 58.54 210.31 56.64 211.46 54.39L211.70 54.39L211.70 58L217.53 58L217.53 40.49C217.53 33.51 211.77 31.47 206.84 31.47C201.59 31.47 197.28 33.70 195.73 38.31L201.38 39.46C202.02 37.73 203.82 36.16 206.87 36.16C209.84 36.16 211.44 37.66 211.44 40.21L211.44 40.33C211.44 42.13 209.52 42.20 204.97 42.70C199.91 43.23 194.98 44.73 194.98 50.64C194.98 55.80 198.76 58.54 203.75 58.54M205.32 54.02C202.74 54.02 200.89 52.84 200.89 50.57C200.89 48.18 202.95 47.17 205.70 46.80C207.27 46.59 210.66 46.16 211.48 45.51L211.48 48.60C211.48 51.51 209.07 54.02 205.32 54.02 M230.31 58.54C234.39 58.54 236.88 56.64 238.02 54.39L238.26 54.39L238.26 58L244.09 58L244.09 40.49C244.09 33.51 238.33 31.47 233.41 31.47C228.16 31.47 223.84 33.70 222.30 38.31L227.95 39.46C228.58 37.73 230.38 36.16 233.43 36.16C236.41 36.16 238 37.66 238 40.21L238 40.33C238 42.13 236.08 42.20 231.53 42.70C226.47 43.23 221.55 44.73 221.55 50.64C221.55 55.80 225.32 58.54 230.31 58.54M231.88 54.02C229.30 54.02 227.45 52.84 227.45 50.57C227.45 48.18 229.52 47.17 232.26 46.80C233.83 46.59 237.23 46.16 238.05 45.51L238.05 48.60C238.05 51.51 235.63 54.02 231.88 54.02" fill="#ffffff"/>
  <path d="M265.39 58.47C271.60 58.47 276.22 53.55 276.22 44.95C276.22 36.23 271.46 31.47 265.41 31.47C260.75 31.47 258.83 34.28 257.91 36.13L257.66 36.13L257.66 23.08L251.56 23.08L251.56 58L257.52 58L257.52 53.85L257.91 53.85C258.85 55.75 260.89 58.47 265.39 58.47M263.75 53.45C259.77 53.45 257.54 50.03 257.54 44.92C257.54 39.81 259.72 36.48 263.75 36.48C267.88 36.48 269.96 40.05 269.96 44.92C269.96 49.84 267.83 53.45 263.75 53.45 M280.52 58L286.61 58L286.61 31.80L280.52 31.80M283.56 28.09C285.51 28.09 287.13 26.59 287.13 24.74C287.13 22.89 285.51 21.41 283.56 21.41C281.62 21.41 280.02 22.89 280.02 24.74C280.02 26.59 281.62 28.09 283.56 28.09 M303.45 58.54C311.09 58.54 315.98 53.10 315.98 45.04C315.98 36.88 311.09 31.47 303.45 31.47C295.80 31.47 290.93 36.88 290.93 45.04C290.93 53.10 295.80 58.54 303.45 58.54M303.45 53.59C299.20 53.59 297.14 49.80 297.14 45.02C297.14 40.19 299.20 36.41 303.45 36.41C307.71 36.41 309.80 40.19 309.80 45.02C309.80 49.80 307.71 53.59 303.45 53.59" fill="#b388ff"/>
</svg>
