<svg xmlns="http://www.w3.org/2000/svg" viewBox="0 0 321 80" width="802.5" height="200">
  <defs>
    <linearGradient id="wm-grad" x1="0" y1="0" x2="321" y2="0" gradientUnits="userSpaceOnUse">
      <stop offset="76.13171728971963%" stop-color="#ffffff"/>
      <stop offset="76.13171728971963%" stop-color="#b388ff"/>
    </linearGradient>
  </defs>
  <svg x="8" y="10" width="60" height="60" viewBox="0 0 32 32">
    <defs>
      <linearGradient id="lockup-grad" x1="0" y1="0" x2="32" y2="32" gradientUnits="userSpaceOnUse">
        <stop offset="0%" stop-color="#1a3a6b"/>
        <stop offset="60%" stop-color="#7c4dff"/>
        <stop offset="100%" stop-color="#c62828"/>
      </linearGradient>
    </defs>
    <path d="M16 3 L29 27 L22 27 L16 14 L10 27 L3 27 Z" fill="url(#lockup-grad)"/>
  </svg>
  <path d="M94.80 58.59C99.05 58.59 101.53 56.45 102.54 54.41L102.80 54.41L102.80 58L107.79 58L107.79 40.61C107.79 33.04 101.77 31.47 97.55 31.47C92.88 31.47 88.48 33.30 86.70 37.98L91.55 39.25C92.27 37.47 94.20 35.66 97.62 35.66C100.90 35.66 102.63 37.35 102.63 40.26L102.63 40.40C102.63 42.25 100.64 42.23 96.02 42.77C91.08 43.33 85.95 44.64 85.95 50.59C85.95 55.75 89.81 58.59 94.80 58.59M95.95 54.44C93.07 54.44 91.01 53.15 91.01 50.66C91.01 47.97 93.40 46.98 96.30 46.59C97.90 46.38 101.88 45.95 102.66 45.20L102.66 48.55C102.66 51.63 100.15 54.44 95.95 54.44 M113.73 67.80L118.88 67.80L118.88 53.90L119.16 53.90C120.08 55.56 121.98 58.52 126.73 58.52C133.11 58.52 137.68 53.43 137.68 44.97C137.68 36.44 133.02 31.47 126.73 31.47C121.84 31.47 120.08 34.45 119.16 36.06L118.74 36.06L118.74 31.80L113.73 31.80M125.59 54.13C121.23 54.13 118.79 50.38 118.79 44.92C118.79 39.48 121.16 35.85 125.59 35.85C130.13 35.85 132.41 39.77 132.41 44.92C132.41 50.13 130.06 54.13 125.59 54.13 M153.70 58.54C159.30 58.54 163.30 55.80 164.55 51.72L159.70 50.57C158.78 53.01 156.63 54.27 153.74 54.27C149.45 54.27 146.55 51.53 146.36 46.47L164.95 46.47L164.95 44.64C164.95 35.20 159.23 31.47 153.25 31.47C145.91 31.47 141.18 37.02 141.18 45.09C141.18 53.22 145.96 58.54 153.70 58.54M146.38 42.63C146.66 38.85 149.15 35.73 153.27 35.73C157.23 35.73 159.46 38.50 159.84 42.63 M167.46 58L173.20 58L176.77 52.42C177.87 50.69 178.66 49.05 179.44 47.50C180.28 49.05 181.13 50.69 182.23 52.42L185.74 58L191.53 58L182.60 44.73L191.13 31.80L185.41 31.80L182.39 36.55C181.24 38.38 180.42 40.07 179.60 41.69C178.76 40.07 177.89 38.38 176.77 36.55L173.81 31.80L168 31.80L176.41 44.55 M202.67 58.59C206.91 58.59 209.40 56.45 210.41 54.41L210.66 54.41L210.66 58L215.66 58L215.66 40.61C215.66 33.04 209.63 31.47 205.41 31.47C200.75 31.47 196.34 33.30 194.56 37.98L199.41 39.25C200.14 37.47 202.06 35.66 205.48 35.66C208.77 35.66 210.50 37.35 210.50 40.26L210.50 40.40C210.50 42.25 208.51 42.23 203.89 42.77C198.95 43.33 193.81 44.64 193.81 50.59C193.81 55.75 197.68 58.59 202.67 58.59M203.82 54.44C200.94 54.44 198.88 53.15 198.88 50.66C198.88 47.97 201.27 46.98 204.17 46.59C205.77 46.38 209.75 45.95 210.52 45.20L210.52 48.55C210.52 51.63 208.02 54.44 203.82 54.44 M228.93 58.59C233.17 58.59 235.66 56.45 236.66 54.41L236.92 54.41L236.92 58L241.91 58L241.91 40.61C241.91 33.04 235.89 31.47 231.67 31.47C227.01 31.47 222.60 33.30 220.82 37.98L225.67 39.25C226.40 37.47 228.32 35.66 231.74 35.66C235.02 35.66 236.76 37.35 236.76 40.26L236.76 40.40C236.76 42.25 234.77 42.23 230.15 42.77C225.20 43.33 220.07 44.64 220.07 50.59C220.07 55.75 223.94 58.59 228.93 58.59M230.08 54.44C227.20 54.44 225.13 53.15 225.13 50.66C225.13 47.97 227.52 46.98 230.43 46.59C232.02 46.38 236.01 45.95 236.78 45.20L236.78 48.55C236.78 51.63 234.27 54.44 230.08 54.44 M260.86 58.52C267.23 58.52 271.80 53.43 271.80 44.97C271.80 36.44 267.14 31.47 260.86 31.47C255.96 31.47 254.20 34.45 253.29 36.06L253.01 36.06L253.01 23.08L247.85 23.08L247.85 58L252.87 58L252.87 53.90L253.29 53.90C254.20 55.56 256.10 58.52 260.86 58.52M259.71 54.13C255.35 54.13 252.91 50.38 252.91 44.92C252.91 39.48 255.28 35.85 259.71 35.85C264.26 35.85 266.53 39.77 266.53 44.92C266.53 50.13 264.19 54.13 259.71 54.13 M276.52 58L281.68 58L281.68 31.80L276.52 31.80M279.13 27.79C280.91 27.79 282.38 26.43 282.38 24.74C282.38 23.03 280.91 21.67 279.13 21.67C277.34 21.67 275.87 23.03 275.87 24.74C275.87 26.43 277.34 27.79 279.13 27.79 M298.63 58.54C306.02 58.54 310.89 53.13 310.89 45.04C310.89 36.88 306.02 31.47 298.63 31.47C291.25 31.47 286.40 36.88 286.40 45.04C286.40 53.13 291.25 58.54 298.63 58.54M298.63 54.18C293.90 54.18 291.65 50.01 291.65 45.04C291.65 40 293.90 35.83 298.63 35.83C303.41 35.83 305.66 40.02 305.66 45.04C305.66 50.01 303.41 54.18 298.63 54.18" fill="url(#wm-grad)"/>
</svg>
