<svg xmlns="http://www.w3.org/2000/svg" viewBox="0 0 213 56" width="639" height="168">
  <path d="M9.90 42.54C13.79 42.54 16.07 40.58 16.99 38.71L17.23 38.71L17.23 42L21.81 42L21.81 26.06C21.81 19.12 16.29 17.68 12.42 17.68C8.14 17.68 4.10 19.36 2.47 23.65L6.92 24.81C7.58 23.18 9.35 21.53 12.48 21.53C15.49 21.53 17.08 23.07 17.08 25.74L17.08 25.87C17.08 27.56 15.25 27.54 11.02 28.04C6.49 28.55 1.78 29.75 1.78 35.21C1.78 39.94 5.33 42.54 9.90 42.54M10.96 38.73C8.31 38.73 6.42 37.55 6.42 35.28C6.42 32.80 8.62 31.90 11.28 31.54C12.74 31.34 16.39 30.96 17.10 30.27L17.10 33.34C17.10 36.16 14.80 38.73 10.96 38.73 M27.17 50.98L31.89 50.98L31.89 38.24L32.15 38.24C32.99 39.77 34.73 42.47 39.09 42.47C44.93 42.47 49.12 37.81 49.12 30.05C49.12 22.23 44.85 17.68 39.09 17.68C34.60 17.68 32.99 20.41 32.15 21.89L31.76 21.89L31.76 17.98L27.17 17.98M38.04 38.46C34.04 38.46 31.81 35.02 31.81 30.01C31.81 25.03 33.98 21.70 38.04 21.70C42.21 21.70 44.29 25.29 44.29 30.01C44.29 34.78 42.14 38.46 38.04 38.46 M63.72 42.49C68.86 42.49 72.53 39.98 73.67 36.24L69.22 35.19C68.38 37.42 66.41 38.58 63.76 38.58C59.83 38.58 57.17 36.07 57 31.43L74.03 31.43L74.03 29.75C74.03 21.10 68.79 17.68 63.31 17.68C56.59 17.68 52.25 22.77 52.25 30.16C52.25 37.62 56.63 42.49 63.72 42.49M57.02 27.91C57.28 24.45 59.55 21.59 63.33 21.59C66.96 21.59 69.01 24.13 69.35 27.91 M76.26 42L81.52 42L84.79 36.89C85.79 35.30 86.53 33.79 87.23 32.38C88.01 33.79 88.78 35.30 89.79 36.89L93.01 42L98.32 42L90.13 29.84L97.96 17.98L92.71 17.98L89.94 22.34C88.89 24.02 88.14 25.56 87.38 27.05C86.61 25.56 85.82 24.02 84.79 22.34L82.08 17.98L76.75 17.98L84.46 29.67 M108.45 42.54C112.34 42.54 114.62 40.58 115.54 38.71L115.78 38.71L115.78 42L120.35 42L120.35 26.06C120.35 19.12 114.83 17.68 110.96 17.68C106.69 17.68 102.65 19.36 101.02 23.65L105.46 24.81C106.13 23.18 107.89 21.53 111.03 21.53C114.04 21.53 115.63 23.07 115.63 25.74L115.63 25.87C115.63 27.56 113.80 27.54 109.57 28.04C105.03 28.55 100.33 29.75 100.33 35.21C100.33 39.94 103.87 42.54 108.45 42.54M109.50 38.73C106.86 38.73 104.97 37.55 104.97 35.28C104.97 32.80 107.16 31.90 109.82 31.54C111.29 31.34 114.94 30.96 115.65 30.27L115.65 33.34C115.65 36.16 113.35 38.73 109.50 38.73 M132.44 42.54C136.32 42.54 138.60 40.58 139.53 38.71L139.76 38.71L139.76 42L144.34 42L144.34 26.06C144.34 19.12 138.82 17.68 134.95 17.68C130.67 17.68 126.63 19.36 125 23.65L129.45 24.81C130.12 23.18 131.88 21.53 135.01 21.53C138.02 21.53 139.61 23.07 139.61 25.74L139.61 25.87C139.61 27.56 137.79 27.54 133.55 28.04C129.02 28.55 124.31 29.75 124.31 35.21C124.31 39.94 127.86 42.54 132.44 42.54M133.49 38.73C130.85 38.73 128.96 37.55 128.96 35.28C128.96 32.80 131.15 31.90 133.81 31.54C135.27 31.34 138.92 30.96 139.63 30.27L139.63 33.34C139.63 36.16 137.33 38.73 133.49 38.73 M161.62 42.47C167.46 42.47 171.65 37.81 171.65 30.05C171.65 22.23 167.38 17.68 161.62 17.68C157.13 17.68 155.52 20.41 154.68 21.89L154.42 21.89L154.42 9.99L149.70 9.99L149.70 42L154.29 42L154.29 38.24L154.68 38.24C155.52 39.77 157.26 42.47 161.62 42.47M160.57 38.46C156.57 38.46 154.34 35.02 154.34 30.01C154.34 25.03 156.51 21.70 160.57 21.70C164.74 21.70 166.82 25.29 166.82 30.01C166.82 34.78 164.67 38.46 160.57 38.46 M175.90 42L180.62 42L180.62 17.98L175.90 17.98M178.28 14.31C179.91 14.31 181.27 13.06 181.27 11.51C181.27 9.95 179.91 8.70 178.28 8.70C176.65 8.70 175.29 9.95 175.29 11.51C175.29 13.06 176.65 14.31 178.28 14.31 M196.08 42.49C202.85 42.49 207.32 37.53 207.32 30.12C207.32 22.64 202.85 17.68 196.08 17.68C189.31 17.68 184.87 22.64 184.87 30.12C184.87 37.53 189.31 42.49 196.08 42.49M196.08 38.50C191.74 38.50 189.68 34.67 189.68 30.12C189.68 25.50 191.74 21.68 196.08 21.68C200.46 21.68 202.53 25.52 202.53 30.12C202.53 34.67 200.46 38.50 196.08 38.50" fill="#ffffff"/>
</svg>
