<svg xmlns="http://www.w3.org/2000/svg" viewBox="0 0 216 56" width="648" height="168">
  <path d="M9.67 42.49C13.41 42.49 15.68 40.75 16.74 38.69L16.95 38.69L16.95 42L22.30 42L22.30 25.95C22.30 19.55 17.02 17.68 12.50 17.68C7.69 17.68 3.74 19.72 2.32 23.95L7.50 25.01C8.08 23.42 9.73 21.98 12.53 21.98C15.25 21.98 16.71 23.35 16.71 25.69L16.71 25.80C16.71 27.46 14.95 27.52 10.79 27.97C6.14 28.46 1.63 29.84 1.63 35.25C1.63 39.98 5.09 42.49 9.67 42.49M11.11 38.35C8.74 38.35 7.05 37.27 7.05 35.19C7.05 33 8.94 32.07 11.45 31.73C12.89 31.54 16.01 31.15 16.76 30.55L16.76 33.38C16.76 36.05 14.54 38.35 11.11 38.35 M27.23 50.98L32.82 50.98L32.82 38.20L33.05 38.20C33.91 39.94 35.78 42.43 39.91 42.43C45.60 42.43 49.83 37.92 49.83 30.03C49.83 22.04 45.47 17.68 39.93 17.68C35.65 17.68 33.89 20.26 33.05 21.96L32.69 21.96L32.69 17.98L27.23 17.98M38.40 37.83C34.75 37.83 32.71 34.70 32.71 30.01C32.71 25.33 34.71 22.28 38.40 22.28C42.18 22.28 44.10 25.54 44.10 30.01C44.10 34.52 42.14 37.83 38.40 37.83 M64.30 42.49C69.65 42.49 73.39 39.94 74.55 36.05L69.41 35C68.66 37.04 66.81 38.11 64.37 38.11C60.78 38.11 58.35 35.83 58.20 31.56L74.91 31.56L74.91 29.80C74.91 21.38 69.80 17.68 63.94 17.68C57.06 17.68 52.63 22.75 52.63 30.14C52.63 37.66 57.06 42.49 64.30 42.49M58.22 27.76C58.48 24.55 60.54 22.06 63.96 22.06C67.29 22.06 69.16 24.32 69.48 27.76 M76.81 42L82.85 42L85.82 37.19C86.76 35.60 87.47 34.07 88.18 32.61C88.93 34.07 89.68 35.60 90.63 37.19L93.59 42L99.70 42L91.72 29.80L99.33 17.98L93.31 17.98L90.78 22.06C89.81 23.67 89.06 25.26 88.33 26.75C87.58 25.26 86.83 23.70 85.88 22.06L83.43 17.98L77.29 17.98L84.76 29.67 M109.44 42.49C113.18 42.49 115.45 40.75 116.51 38.69L116.72 38.69L116.72 42L122.07 42L122.07 25.95C122.07 19.55 116.79 17.68 112.27 17.68C107.46 17.68 103.51 19.72 102.09 23.95L107.27 25.01C107.85 23.42 109.50 21.98 112.29 21.98C115.02 21.98 116.48 23.35 116.48 25.69L116.48 25.80C116.48 27.46 114.72 27.52 110.55 27.97C105.91 28.46 101.40 29.84 101.40 35.25C101.40 39.98 104.86 42.49 109.44 42.49M110.88 38.35C108.51 38.35 106.82 37.27 106.82 35.19C106.82 33 108.71 32.07 111.22 31.73C112.66 31.54 115.78 31.15 116.53 30.55L116.53 33.38C116.53 36.05 114.31 38.35 110.88 38.35 M133.70 42.49C137.44 42.49 139.72 40.75 140.77 38.69L140.99 38.69L140.99 42L146.34 42L146.34 25.95C146.34 19.55 141.05 17.68 136.54 17.68C131.73 17.68 127.77 19.72 126.36 23.95L131.53 25.01C132.11 23.42 133.77 21.98 136.56 21.98C139.29 21.98 140.75 23.35 140.75 25.69L140.75 25.80C140.75 27.46 138.99 27.52 134.82 27.97C130.18 28.46 125.67 29.84 125.67 35.25C125.67 39.98 129.13 42.49 133.70 42.49M135.14 38.35C132.78 38.35 131.08 37.27 131.08 35.19C131.08 33 132.97 32.07 135.49 31.73C136.93 31.54 140.04 31.15 140.79 30.55L140.79 33.38C140.79 36.05 138.58 38.35 135.14 38.35 M163.94 42.43C169.63 42.43 173.87 37.92 173.87 30.03C173.87 22.04 169.51 17.68 163.96 17.68C159.69 17.68 157.93 20.26 157.09 21.96L156.85 21.96L156.85 9.99L151.27 9.99L151.27 42L156.72 42L156.72 38.20L157.09 38.20C157.95 39.94 159.82 42.43 163.94 42.43M162.44 37.83C158.79 37.83 156.74 34.70 156.74 30.01C156.74 25.33 158.74 22.28 162.44 22.28C166.22 22.28 168.13 25.54 168.13 30.01C168.13 34.52 166.18 37.83 162.44 37.83 M177.72 42L183.31 42L183.31 17.98L177.72 17.98M180.52 14.59C182.30 14.59 183.78 13.21 183.78 11.51C183.78 9.82 182.30 8.46 180.52 8.46C178.73 8.46 177.27 9.82 177.27 11.51C177.27 13.21 178.73 14.59 180.52 14.59 M198.66 42.49C205.66 42.49 210.15 37.51 210.15 30.12C210.15 22.64 205.66 17.68 198.66 17.68C191.65 17.68 187.19 22.64 187.19 30.12C187.19 37.51 191.65 42.49 198.66 42.49M198.66 37.96C194.77 37.96 192.88 34.48 192.88 30.10C192.88 25.67 194.77 22.21 198.66 22.21C202.57 22.21 204.48 25.67 204.48 30.10C204.48 34.48 202.57 37.96 198.66 37.96" fill="#0a1628"/>
</svg>
